<svg id="visual" viewBox="0 0 1920 1080" width="1920" height="1080" xmlns="http://www.w3.org/2000/svg" xmlns:xlink="http://www.w3.org/1999/xlink" version="1.1"><rect x="0" y="0" width="1920" height="1080" fill="#140021"></rect><path d="M774 0L920 0L920 77L779 77L779 154L755 154L755 231L1027 231L1027 309L842 309L842 386L959 386L959 463L802 463L802 540L760 540L760 617L975 617L975 694L643 694L643 771L664 771L664 849L921 849L921 926L865 926L865 1003L694 1003L694 1080L0 1080L0 1003L0 1003L0 926L0 926L0 849L0 849L0 771L0 771L0 694L0 694L0 617L0 617L0 540L0 540L0 463L0 463L0 386L0 386L0 309L0 309L0 231L0 231L0 154L0 154L0 77L0 77L0 0L0 0Z" fill="#9900ff"></path><path d="M531 0L826 0L826 77L556 77L556 154L630 154L630 231L757 231L757 309L663 309L663 386L640 386L640 463L578 463L578 540L646 540L646 617L741 617L741 694L607 694L607 771L811 771L811 849L529 849L529 926L652 926L652 1003L779 1003L779 1080L0 1080L0 1003L0 1003L0 926L0 926L0 849L0 849L0 771L0 771L0 694L0 694L0 617L0 617L0 540L0 540L0 463L0 463L0 386L0 386L0 309L0 309L0 231L0 231L0 154L0 154L0 77L0 77L0 0L0 0Z" fill="#8800e2"></path><path d="M680 0L564 0L564 77L556 77L556 154L521 154L521 231L414 231L414 309L615 309L615 386L689 386L689 463L679 463L679 540L655 540L655 617L400 617L400 694L544 694L544 771L423 771L423 849L613 849L613 926L496 926L496 1003L409 1003L409 1080L0 1080L0 1003L0 1003L0 926L0 926L0 849L0 849L0 771L0 771L0 694L0 694L0 617L0 617L0 540L0 540L0 463L0 463L0 386L0 386L0 309L0 309L0 231L0 231L0 154L0 154L0 77L0 77L0 0L0 0Z" fill="#7700c6"></path><path d="M432 0L397 0L397 77L268 77L268 154L476 154L476 231L341 231L341 309L413 309L413 386L332 386L332 463L360 463L360 540L268 540L268 617L420 617L420 694L450 694L450 771L369 771L369 849L270 849L270 926L306 926L306 1003L328 1003L328 1080L0 1080L0 1003L0 1003L0 926L0 926L0 849L0 849L0 771L0 771L0 694L0 694L0 617L0 617L0 540L0 540L0 463L0 463L0 386L0 386L0 309L0 309L0 231L0 231L0 154L0 154L0 77L0 77L0 0L0 0Z" fill="#6600ab"></path><path d="M154 0L321 0L321 77L273 77L273 154L223 154L223 231L227 231L227 309L249 309L249 386L322 386L322 463L157 463L157 540L313 540L313 617L102 617L102 694L271 694L271 771L131 771L131 849L212 849L212 926L72 926L72 1003L289 1003L289 1080L0 1080L0 1003L0 1003L0 926L0 926L0 849L0 849L0 771L0 771L0 694L0 694L0 617L0 617L0 540L0 540L0 463L0 463L0 386L0 386L0 309L0 309L0 231L0 231L0 154L0 154L0 77L0 77L0 0L0 0Z" fill="#560090"></path></svg>